<svg width="110" height="32" viewBox="0 0 110 32" fill="none" xmlns="http://www.w3.org/2000/svg">
<g clip-path="url(#clip0_10014_215027)">
<path d="M58.9422 14.9675C58.365 14.7214 57.8404 14.3666 57.3972 13.9224C56.9583 13.475 56.6045 12.9515 56.353 12.3774C56.0389 11.6377 55.9133 10.8316 55.9875 10.0314C56.0616 9.23122 56.3332 8.46194 56.7779 7.79257C57.2226 7.12319 57.8265 6.57466 58.5354 6.19616C59.2443 5.81767 60.0361 5.62104 60.8397 5.62392C61.4915 5.62457 62.1368 5.75316 62.739 6.00241C63.3116 6.25323 63.8333 6.60716 64.2781 7.04657C64.7208 7.48667 65.0716 8.01048 65.3099 8.58747C65.567 9.18679 65.6996 9.83212 65.6996 10.4843C65.6996 11.1364 65.567 11.7817 65.3099 12.381C65.0656 12.9569 64.7146 13.4812 64.2753 13.9265C63.8284 14.3662 63.3048 14.7204 62.7303 14.9716C62.1276 15.2175 61.4829 15.3442 60.8319 15.3446C60.1828 15.3458 59.5399 15.2176 58.9408 14.9675M58.2487 4.34555C56.6477 5.01814 55.374 6.29135 54.7007 7.89213C54.3576 8.71325 54.181 9.59433 54.181 10.4843C54.181 11.3742 54.3576 12.2553 54.7007 13.0764C55.3741 14.6776 56.6479 15.9512 58.2492 16.6243C59.0699 16.9679 59.9508 17.1448 60.8406 17.1448C61.7304 17.1448 62.6113 16.9679 63.432 16.6243C65.0338 15.952 66.3079 14.6781 66.9804 13.0764C67.3231 12.2556 67.4995 11.375 67.4995 10.4856C67.4995 9.59621 67.3231 8.71563 66.9804 7.89487C66.3063 6.2933 65.032 5.01928 63.4302 4.34555C62.609 4.00436 61.7285 3.82872 60.8392 3.82872C59.95 3.82872 59.0699 4.00436 58.2487 4.34555ZM44.0733 4.34144C43.282 4.6801 42.5613 5.16456 41.949 5.76957C41.343 6.37953 40.8592 7.09966 40.5236 7.89121C40.178 8.71234 39.9999 9.59427 39.9999 10.4852C39.9999 11.3761 40.178 12.258 40.5236 13.0791C40.8594 13.8695 41.3429 14.5887 41.948 15.198C42.5585 15.8036 43.2779 16.2885 44.0683 16.6271C44.8903 16.9697 45.772 17.1457 46.6625 17.1448C48.4269 17.1459 50.1198 16.4478 51.3706 15.2035C51.9783 14.5914 52.4638 13.869 52.801 13.075C52.8731 12.9024 52.938 12.7239 52.9996 12.5404H51.0624C50.8216 13.0531 50.4957 13.5213 50.0986 13.9251C49.6492 14.3805 49.1127 14.7407 48.5211 14.9843C47.9295 15.2279 47.295 15.35 46.6552 15.3432C46.0166 15.3457 45.3839 15.2213 44.7937 14.9771C44.2036 14.733 43.6679 14.374 43.2177 13.921C42.7788 13.4733 42.425 12.9495 42.1736 12.3751C41.676 11.1606 41.6776 9.79891 42.1782 8.58564C42.55 7.70456 43.1742 6.95315 43.9722 6.42598C44.7701 5.89881 45.7062 5.61944 46.6625 5.62301C47.3147 5.62339 47.9604 5.75296 48.5623 6.00424C49.1353 6.25557 49.6583 6.60837 50.1059 7.04566C50.5047 7.44988 50.8301 7.92048 51.0674 8.43635H53.0005C52.9425 8.25144 52.875 8.0711 52.8033 7.89532C52.1276 6.29478 50.8542 5.02094 49.254 4.34464C48.4331 4.00354 47.553 3.82761 46.6641 3.8269C45.7751 3.8262 44.8948 4.00073 44.0733 4.34053M69.5071 17.1448H71.3059V3.82781H69.5071V17.1448ZM91.7234 8.52127C91.7234 8.10397 91.8056 7.69076 91.9653 7.30523C92.125 6.91969 92.359 6.56939 92.6541 6.27431C92.9492 5.97924 93.2995 5.74517 93.685 5.58548C94.0705 5.42579 94.4838 5.34359 94.9011 5.34359C95.3184 5.34359 95.7316 5.42579 96.1171 5.58548C96.5026 5.74517 96.8529 5.97924 97.148 6.27431C97.4431 6.56939 97.6772 6.91969 97.8369 7.30523C97.9965 7.69076 98.0787 8.10397 98.0787 8.52127C98.0787 9.36404 97.7439 10.1723 97.148 10.7682C96.5521 11.3642 95.7438 11.6989 94.9011 11.6989C94.0583 11.6989 93.25 11.3642 92.6541 10.7682C92.0582 10.1723 91.7234 9.36404 91.7234 8.52127ZM90.1058 8.54684C90.1058 11.146 92.2516 13.18 94.9855 13.18H96.0712L93.9496 17.2042H95.7594L99.0594 10.878C99.4707 10.1506 99.6973 9.33337 99.7196 8.49798C99.6866 7.24089 99.1624 6.04676 98.2593 5.1716C97.3563 4.29643 96.1463 3.8099 94.8888 3.81629C93.6313 3.82268 92.4263 4.32148 91.5322 5.20578C90.6381 6.09007 90.126 7.28947 90.1058 8.54684ZM102.823 13.2038C102.836 12.4765 103.134 11.7835 103.653 11.2739C104.172 10.7642 104.87 10.4787 105.598 10.4787C106.325 10.4787 107.024 10.7642 107.543 11.2739C108.061 11.7835 108.36 12.4765 108.373 13.2038C108.373 13.9397 108.08 14.6456 107.56 15.166C107.04 15.6864 106.334 15.9788 105.598 15.9788C104.862 15.9788 104.156 15.6864 103.636 15.166C103.115 14.6456 102.823 13.9397 102.823 13.2038ZM103.747 7.11004C103.748 6.62159 103.939 6.15266 104.28 5.80304C104.621 5.45342 105.085 5.25074 105.573 5.23813C106.07 5.23813 106.547 5.43549 106.898 5.7868C107.249 6.13811 107.446 6.61458 107.446 7.1114C107.446 7.60823 107.249 8.0847 106.898 8.43601C106.547 8.78732 106.07 8.98468 105.573 8.98468C105.085 8.97196 104.621 8.76924 104.28 8.41964C103.939 8.07005 103.748 7.60118 103.747 7.11277M102.253 7.11277C102.245 7.83843 102.474 8.54693 102.904 9.13124L103.274 9.62569L102.802 10.0266C102.338 10.4156 101.966 10.902 101.711 11.4511C101.456 12.0003 101.325 12.5988 101.328 13.2042C101.328 14.3369 101.778 15.4232 102.578 16.2241C103.379 17.025 104.466 17.4749 105.598 17.4749C106.731 17.4749 107.817 17.025 108.618 16.2241C109.419 15.4232 109.869 14.3369 109.869 13.2042C109.872 12.5922 109.739 11.9871 109.48 11.4327C109.221 10.8783 108.842 10.3885 108.37 9.9987L107.888 9.59373L108.275 9.09517C108.715 8.52756 108.949 7.82824 108.942 7.11049C108.927 6.23333 108.569 5.39701 107.943 4.78182C107.318 4.16664 106.476 3.82188 105.598 3.82188C104.721 3.82188 103.879 4.16664 103.253 4.78182C102.628 5.39701 102.269 6.23333 102.255 7.11049M85.7908 3.82781V14.1589C85.8057 14.2811 85.7947 14.405 85.7586 14.5227C85.7225 14.6404 85.6622 14.7492 85.5814 14.8421C85.5006 14.9349 85.4012 15.0098 85.2897 15.0618C85.1781 15.1139 85.0569 15.1419 84.9339 15.1442C84.7251 15.1326 84.5235 15.0638 84.3511 14.9455C84.1787 14.8271 84.0422 14.6637 83.9564 14.473L79.845 5.62529C79.6308 5.08978 79.2596 4.63155 78.7803 4.31077C78.3009 3.98998 77.7358 3.82163 77.159 3.82781C76.4888 3.82021 75.8368 4.04621 75.315 4.467C75.291 4.48457 75.268 4.50347 75.2461 4.52361C74.9721 4.74854 74.7516 5.0317 74.6008 5.3525C74.4499 5.67329 74.3725 6.02368 74.374 6.37817V17.1448H76.2806V6.65713C76.2745 6.53754 76.2928 6.41796 76.3343 6.30567C76.3759 6.19338 76.4399 6.09073 76.5224 6.00397C76.605 5.91722 76.7043 5.84817 76.8144 5.80104C76.9244 5.75391 77.043 5.72969 77.1627 5.72985C77.3721 5.73736 77.5746 5.8063 77.7451 5.92807C77.9156 6.04985 78.0465 6.21908 78.1215 6.41469L78.1585 6.50189C79.1245 8.63861 81.2859 13.3371 82.5511 15.829C82.9766 16.6659 83.7034 17.0421 84.911 17.048C85.5932 17.0603 86.2587 16.8364 86.7948 16.4143C87.0909 16.2256 87.3308 15.9608 87.4894 15.6475C87.648 15.3342 87.7193 14.9841 87.696 14.6337V3.82781H85.7908Z" fill="url(#paint0_linear_10014_215027)"/>
<path d="M41.8394 27.885C41.7948 27.8897 41.7498 27.8843 41.7076 27.8693C41.6654 27.8544 41.627 27.8302 41.5953 27.7985C41.5636 27.7668 41.5394 27.7285 41.5245 27.6863C41.5095 27.644 41.5042 27.599 41.5088 27.5544V21.3324C41.5056 21.2876 41.5116 21.2426 41.5265 21.2002C41.5413 21.1578 41.5647 21.1189 41.5951 21.0859C41.6413 21.0346 41.7024 20.999 41.7698 20.9842C41.8372 20.9693 41.9076 20.976 41.971 21.0032C42.0345 21.0304 42.0878 21.0767 42.1236 21.1358C42.1593 21.1948 42.1757 21.2636 42.1704 21.3324V27.5544C42.1732 27.5986 42.1673 27.6429 42.1529 27.6848C42.1384 27.7266 42.1158 27.7652 42.0864 27.7982C42.0534 27.8289 42.0144 27.8523 41.9719 27.8673C41.9294 27.8822 41.8843 27.8882 41.8394 27.885Z" fill="#231F20"/>
<path d="M44.5381 27.885C44.4932 27.8915 44.4473 27.8874 44.4043 27.8731C44.3612 27.8588 44.322 27.8346 44.2899 27.8026C44.2578 27.7705 44.2336 27.7314 44.2192 27.6883C44.2048 27.6452 44.2007 27.5994 44.2071 27.5545V21.3324C44.2007 21.2875 44.2048 21.2417 44.2192 21.1986C44.2336 21.1555 44.2578 21.1164 44.2899 21.0843C44.322 21.0522 44.3612 21.0281 44.4043 21.0138C44.4473 20.9995 44.4932 20.9954 44.5381 21.0019C44.605 21.0072 44.6699 21.0274 44.728 21.061C44.7861 21.0946 44.8361 21.1406 44.8741 21.1959L49.09 26.6144V21.3324C49.09 21.2446 49.1249 21.1604 49.187 21.0984C49.2491 21.0363 49.3333 21.0014 49.421 21.0014C49.5088 21.0014 49.593 21.0363 49.6551 21.0984C49.7172 21.1604 49.7521 21.2446 49.7521 21.3324V27.5545C49.7584 27.5994 49.7542 27.6452 49.7398 27.6882C49.7254 27.7312 49.7012 27.7703 49.6691 27.8023C49.637 27.8344 49.5978 27.8586 49.5548 27.8729C49.5118 27.8872 49.466 27.8914 49.421 27.885C49.3539 27.8806 49.2887 27.8608 49.2304 27.8271C49.1721 27.7935 49.1224 27.7469 49.085 27.691L44.8687 22.2725V27.5545C44.8751 27.5994 44.8709 27.6451 44.8566 27.6882C44.8422 27.7312 44.8181 27.7703 44.786 27.8023C44.7539 27.8344 44.7148 27.8586 44.6718 27.8729C44.6288 27.8873 44.583 27.8914 44.5381 27.885Z" fill="#231F20"/>
<path d="M53.5424 27.88C53.0452 27.9163 52.5512 27.7748 52.1485 27.4809C51.9799 27.3195 51.8457 27.1255 51.7542 26.9107C51.6626 26.6959 51.6155 26.4648 51.6157 26.2313V26.1998C51.6137 26.1584 51.6201 26.117 51.6345 26.0782C51.6489 26.0393 51.6711 26.0038 51.6997 25.9738C51.7322 25.9444 51.7703 25.9218 51.8117 25.9074C51.8532 25.8929 51.897 25.887 51.9408 25.8898C51.9843 25.8868 52.028 25.8926 52.0691 25.9071C52.1103 25.9215 52.148 25.9443 52.18 25.9738C52.2392 26.0413 52.2752 26.1259 52.2828 26.2154C52.2775 26.361 52.3032 26.5061 52.3583 26.641C52.4134 26.776 52.4966 26.8976 52.6024 26.9979C52.8842 27.1694 53.2133 27.2466 53.542 27.2184H55.0541C55.4103 27.258 55.7681 27.16 56.0544 26.9445C56.269 26.6618 56.3671 26.3075 56.3284 25.9547C56.3676 25.5975 56.267 25.2389 56.0476 24.9543C55.7623 24.7406 55.4067 24.6428 55.0523 24.6804H53.6611C53.4045 24.7067 53.1452 24.679 52.8999 24.599C52.6546 24.519 52.4288 24.3885 52.2371 24.216C52.0453 24.0434 51.8919 23.8325 51.7866 23.597C51.6813 23.3615 51.6265 23.1065 51.6258 22.8485C51.625 22.5905 51.6783 22.3353 51.7823 22.0991C51.8862 21.863 52.0385 21.6513 52.2293 21.4776C52.42 21.304 52.6451 21.1722 52.8899 21.0908C53.1347 21.0094 53.3939 20.9802 53.6506 21.0051H55.0473C55.5145 20.9715 55.9786 21.1044 56.3571 21.3804C56.5162 21.5318 56.6431 21.7137 56.7302 21.9154C56.8173 22.117 56.8628 22.3341 56.8639 22.5537V22.5994C56.865 22.638 56.8583 22.6765 56.8444 22.7126C56.8304 22.7486 56.8094 22.7815 56.7827 22.8094C56.7498 22.8393 56.7112 22.8622 56.6692 22.8767C56.6272 22.8911 56.5827 22.8968 56.5384 22.8934C56.4951 22.8961 56.4517 22.8898 56.411 22.8749C56.3703 22.8599 56.3332 22.8367 56.3019 22.8067C56.2425 22.7407 56.2072 22.6565 56.2019 22.5679C56.2043 22.4353 56.1784 22.3037 56.1259 22.1819C56.0734 22.0601 55.9955 21.9509 55.8974 21.8616C55.6414 21.7092 55.3442 21.6404 55.0473 21.6648H53.6506C53.3222 21.6278 52.9922 21.7189 52.7293 21.9191C52.5341 22.1824 52.445 22.5095 52.4796 22.8354C52.445 23.1637 52.536 23.4929 52.7343 23.7568C52.9979 23.9603 53.3301 24.0536 53.6611 24.017H55.0523C55.3222 23.9901 55.5947 24.02 55.8524 24.1049C56.11 24.1897 56.347 24.3276 56.5481 24.5096C56.7492 24.6917 56.9099 24.9138 57.0199 25.1617C57.1299 25.4097 57.1868 25.6779 57.1868 25.9492C57.1868 26.2204 57.1299 26.4887 57.0199 26.7366C56.9099 26.9846 56.7492 27.2067 56.5481 27.3887C56.347 27.5708 56.11 27.7087 55.8524 27.7935C55.5947 27.8783 55.3222 27.9083 55.0523 27.8814L53.5424 27.88Z" fill="#231F20"/>
<path d="M59.1814 27.885C59.1369 27.8897 59.0918 27.8843 59.0496 27.8694C59.0073 27.8544 58.969 27.8302 58.9372 27.7985C58.9055 27.7669 58.8813 27.7285 58.8663 27.6863C58.8513 27.6441 58.8458 27.599 58.8504 27.5545V21.3324C58.8473 21.2876 58.8534 21.2426 58.8683 21.2002C58.8832 21.1578 58.9067 21.1189 58.9372 21.0859C58.9834 21.0348 59.0444 20.9994 59.1118 20.9846C59.1791 20.9699 59.2493 20.9766 59.3127 21.0038C59.376 21.031 59.4293 21.0772 59.465 21.1362C59.5007 21.1951 59.5172 21.2637 59.512 21.3324V27.5545C59.5148 27.5986 59.5089 27.6429 59.4944 27.6848C59.48 27.7267 59.4574 27.7652 59.428 27.7983C59.395 27.8289 59.3561 27.8524 59.3137 27.8673C59.2713 27.8822 59.2263 27.8882 59.1814 27.885Z" fill="#231F20"/>
<path d="M63.6128 27.885C63.3076 27.9115 63.0001 27.8774 62.7081 27.7846C62.4161 27.6918 62.1452 27.5422 61.9112 27.3444C61.7135 27.1105 61.564 26.8397 61.4712 26.5478C61.3785 26.2559 61.3443 25.9485 61.3707 25.6433V23.2436C61.3435 22.9378 61.377 22.6296 61.4694 22.3368C61.5618 22.0439 61.7112 21.7723 61.909 21.5374C62.1387 21.3424 62.4047 21.1947 62.6917 21.1028C62.9787 21.0109 63.281 20.9766 63.5813 21.0019H64.873C65.393 20.9634 65.9104 21.1053 66.3381 21.4037C66.5138 21.5686 66.6532 21.7684 66.7471 21.9904C66.8411 22.2124 66.8876 22.4515 66.8837 22.6925C66.8873 22.7133 66.8891 22.7344 66.8891 22.7555C66.8905 22.8286 66.8631 22.8993 66.8129 22.9523C66.7801 22.982 66.7415 23.0045 66.6995 23.0185C66.6575 23.0325 66.6131 23.0376 66.5691 23.0336C66.5241 23.0366 66.479 23.0303 66.4366 23.015C66.3943 22.9997 66.3555 22.9757 66.3229 22.9446C66.2903 22.9135 66.2644 22.876 66.2471 22.8344C66.2297 22.7928 66.2212 22.7481 66.2221 22.703C66.228 22.5492 66.1998 22.3959 66.1394 22.2543C66.079 22.1127 65.988 21.9862 65.8728 21.884C65.569 21.7124 65.2208 21.6356 64.873 21.6634H63.5603C63.2562 21.6518 62.9528 21.7009 62.6678 21.8077C62.4479 21.9009 62.2738 22.0773 62.1838 22.2985C62.0718 22.6005 62.0209 22.9218 62.034 23.2436V25.6433C62.0213 25.9617 62.0723 26.2794 62.1838 26.5779C62.277 26.8024 62.4555 26.9807 62.6801 27.0737C62.9786 27.1852 63.2963 27.2362 63.6147 27.2235H64.8748C65.1548 27.2347 65.4344 27.1929 65.6989 27.1002C65.7946 27.0624 65.8814 27.0054 65.9542 26.9327C66.0269 26.86 66.0839 26.7731 66.1216 26.6774C66.2143 26.4137 66.2562 26.1349 66.2454 25.8556V25.2479L65.2053 25.2374C65.1197 25.2342 65.0387 25.198 64.9793 25.1363C64.9198 25.0746 64.8866 24.9923 64.8866 24.9066C64.8866 24.821 64.9198 24.7386 64.9793 24.677C65.0387 24.6153 65.1197 24.579 65.2053 24.5759L66.575 24.5864C66.62 24.5799 66.6658 24.5841 66.7089 24.5985C66.752 24.6128 66.7911 24.637 66.8232 24.6691C66.8553 24.7013 66.8795 24.7404 66.8939 24.7835C66.9083 24.8266 66.9124 24.8724 66.906 24.9174V25.8519C66.9311 26.1294 66.901 26.409 66.8177 26.6747C66.7343 26.9405 66.5992 27.1872 66.4202 27.4006C65.9891 27.7598 65.4332 27.9334 64.8743 27.8836L63.6128 27.885Z" fill="#231F20"/>
<path d="M69.3144 24.0682H72.6847C72.7707 24.0666 72.8544 24.0954 72.9212 24.1494C72.9854 24.2173 73.0212 24.3071 73.0212 24.4005C73.0212 24.4939 72.9854 24.5838 72.9212 24.6516C72.8539 24.7045 72.7703 24.7324 72.6847 24.7306H69.3139V27.5554C69.3156 27.5999 69.3082 27.6442 69.2924 27.6858C69.2765 27.7273 69.2524 27.7653 69.2215 27.7973C69.1906 27.8294 69.1536 27.8549 69.1126 27.8723C69.0717 27.8897 69.0276 27.8987 68.9831 27.8987C68.9386 27.8987 68.8946 27.8897 68.8536 27.8723C68.8127 27.8549 68.7757 27.8294 68.7448 27.7973C68.7139 27.7653 68.6898 27.7273 68.6739 27.6858C68.658 27.6442 68.6507 27.5999 68.6524 27.5554V21.3324C68.6507 21.288 68.658 21.2436 68.6739 21.202C68.6898 21.1605 68.7139 21.1225 68.7448 21.0905C68.7757 21.0584 68.8127 21.0329 68.8536 21.0155C68.8946 20.9981 68.9386 20.9891 68.9831 20.9891C69.0276 20.9891 69.0717 20.9981 69.1126 21.0155C69.1536 21.0329 69.1906 21.0584 69.2215 21.0905C69.2524 21.1225 69.2765 21.1605 69.2924 21.202C69.3082 21.2436 69.3156 21.288 69.3139 21.3324L69.3144 24.0682ZM74.3393 21.3324V27.5545C74.341 27.5989 74.3336 27.6433 74.3177 27.6849C74.3019 27.7264 74.2778 27.7644 74.2469 27.7964C74.216 27.8285 74.179 27.854 74.138 27.8714C74.0971 27.8888 74.053 27.8978 74.0085 27.8978C73.964 27.8978 73.92 27.8888 73.879 27.8714C73.8381 27.854 73.801 27.8285 73.7702 27.7964C73.7393 27.7644 73.7152 27.7264 73.6993 27.6849C73.6834 27.6433 73.6761 27.5989 73.6777 27.5545V21.3324C73.6761 21.288 73.6834 21.2436 73.6993 21.202C73.7152 21.1605 73.7393 21.1225 73.7702 21.0905C73.801 21.0584 73.8381 21.0329 73.879 21.0155C73.92 20.9981 73.964 20.9891 74.0085 20.9891C74.053 20.9891 74.0971 20.9981 74.138 21.0155C74.179 21.0329 74.216 21.0584 74.2469 21.0905C74.2778 21.1225 74.3019 21.1605 74.3177 21.202C74.3336 21.2436 74.341 21.288 74.3393 21.3324Z" fill="#231F20"/>
<path d="M81.17 21.0932C81.2009 21.125 81.2248 21.1629 81.2401 21.2045C81.2555 21.2461 81.2619 21.2905 81.259 21.3347C81.2638 21.423 81.2338 21.5097 81.1754 21.5762C81.1438 21.6077 81.1059 21.632 81.0642 21.6478C81.0225 21.6635 80.978 21.6702 80.9335 21.6675H75.935C75.8904 21.6722 75.8453 21.6669 75.8031 21.6519C75.7608 21.6369 75.7224 21.6126 75.6908 21.5809C75.6591 21.5492 75.6349 21.5108 75.62 21.4685C75.605 21.4262 75.5997 21.3811 75.6045 21.3365C75.601 21.2922 75.6071 21.2477 75.6225 21.206C75.6378 21.1643 75.6621 21.1264 75.6935 21.095C75.7249 21.0636 75.7628 21.0394 75.8045 21.024C75.8462 21.0086 75.8907 21.0025 75.935 21.006H80.9335C80.9769 21.0017 81.0207 21.0074 81.0617 21.0225C81.1027 21.0376 81.1397 21.0618 81.17 21.0932ZM78.0982 22.6578C78.096 22.5746 78.1199 22.4929 78.1667 22.4241C78.2003 22.3876 78.2421 22.3598 78.2887 22.343C78.3352 22.3261 78.3851 22.3208 78.4342 22.3273C78.4826 22.3211 78.5317 22.3267 78.5774 22.3435C78.6231 22.3604 78.664 22.388 78.6968 22.4241C78.7434 22.4929 78.7672 22.5747 78.7648 22.6578V27.5567C78.7683 27.601 78.7622 27.6456 78.7468 27.6873C78.7314 27.729 78.7072 27.7668 78.6758 27.7982C78.6443 27.8297 78.6065 27.8539 78.5648 27.8693C78.5231 27.8846 78.4785 27.8908 78.4342 27.8873C78.3447 27.8918 78.257 27.8606 78.1904 27.8005C78.1588 27.7687 78.1343 27.7305 78.1186 27.6884C78.1028 27.6464 78.0962 27.6015 78.0991 27.5567L78.0982 22.6578Z" fill="#231F20"/>
<path d="M84.2622 27.88C83.765 27.9163 83.2711 27.7749 82.8684 27.481C82.6998 27.3194 82.5657 27.1254 82.4741 26.9107C82.3825 26.6959 82.3354 26.4648 82.3356 26.2313V26.1998C82.3335 26.1584 82.3399 26.1171 82.3543 26.0782C82.3688 26.0394 82.391 26.0038 82.4196 25.9738C82.4521 25.9444 82.4903 25.9218 82.5318 25.9073C82.5733 25.8929 82.6172 25.8869 82.6611 25.8898C82.7045 25.8868 82.7481 25.8927 82.7891 25.9072C82.8302 25.9216 82.8679 25.9443 82.8999 25.9738C82.959 26.0413 82.995 26.126 83.0026 26.2154C82.9973 26.361 83.023 26.5061 83.0781 26.6411C83.1332 26.776 83.2164 26.8976 83.3222 26.9979C83.604 27.1694 83.9331 27.2466 84.2618 27.2184H85.7739C86.1301 27.2581 86.488 27.1601 86.7743 26.9445C86.9889 26.6618 87.0869 26.3075 87.0482 25.9547C87.0874 25.5975 86.9868 25.2389 86.7674 24.9543C86.4821 24.7406 86.1266 24.6427 85.7721 24.6804H84.381C84.1255 24.7041 83.8679 24.6743 83.6246 24.593C83.3812 24.5116 83.1575 24.3804 82.9677 24.2078C82.7779 24.0352 82.6261 23.8249 82.5221 23.5904C82.4181 23.3558 82.364 23.1022 82.3635 22.8456C82.3629 22.5891 82.4158 22.3352 82.5188 22.1002C82.6218 21.8652 82.7726 21.6543 82.9616 21.4808C83.1507 21.3073 83.3738 21.1751 83.6167 21.0927C83.8597 21.0102 84.1172 20.9793 84.3727 21.0019H85.7694C86.2366 20.9683 86.7007 21.1012 87.0792 21.3772C87.2383 21.5286 87.3652 21.7106 87.4523 21.9122C87.5394 22.1138 87.5849 22.3309 87.586 22.5505V22.5962C87.5871 22.6348 87.5804 22.6733 87.5665 22.7094C87.5525 22.7454 87.5315 22.7783 87.5048 22.8062C87.4719 22.8361 87.4333 22.859 87.3913 22.8735C87.3493 22.8879 87.3048 22.8936 87.2605 22.8902C87.2172 22.8929 87.1738 22.8866 87.1331 22.8717C87.0924 22.8567 87.0553 22.8335 87.024 22.8035C86.9645 22.7376 86.9294 22.6533 86.9245 22.5647C86.9267 22.4321 86.9006 22.3006 86.8481 22.1788C86.7956 22.057 86.7179 21.9478 86.6199 21.8584C86.3637 21.706 86.0664 21.6372 85.7694 21.6616H84.3727C84.0443 21.6246 83.7143 21.7157 83.4514 21.9159C83.2562 22.1792 83.1671 22.5063 83.2017 22.8322C83.1671 23.1605 83.2581 23.4897 83.4564 23.7536C83.72 23.9571 84.0523 24.0504 84.3832 24.0138H85.7744C86.0443 23.9869 86.3168 24.0168 86.5745 24.1017C86.8321 24.1865 87.0691 24.3244 87.2702 24.5064C87.4713 24.6885 87.632 24.9106 87.742 25.1586C87.852 25.4065 87.9089 25.6747 87.9089 25.946C87.9089 26.2172 87.852 26.4855 87.742 26.7334C87.632 26.9814 87.4713 27.2035 87.2702 27.3856C87.0691 27.5676 86.8321 27.7055 86.5745 27.7903C86.3168 27.8752 86.0443 27.9051 85.7744 27.8782L84.2622 27.88Z" fill="#231F20"/>
<path d="M26.145 0.00775146H5.83989C2.61461 0.00775146 0 2.62236 0 5.84764V26.1528C0 29.3781 2.61461 31.9927 5.83989 31.9927H26.145C29.3703 31.9927 31.9849 29.3781 31.9849 26.1528V5.84764C31.9849 2.62236 29.3703 0.00775146 26.145 0.00775146Z" fill="url(#paint1_linear_10014_215027)"/>
<path d="M10.768 7.9926C9.78041 7.99341 8.8152 8.28696 7.99436 8.83616C7.17353 9.38536 6.53391 10.1655 6.15634 11.0781C5.77877 11.9907 5.6802 12.9948 5.87307 13.9634C6.06594 14.932 6.54161 15.8217 7.23996 16.52C7.93831 17.2184 8.828 17.694 9.79661 17.8869C10.7652 18.0798 11.7692 17.9812 12.6818 17.6036C13.5944 17.2261 14.3746 16.5865 14.9238 15.7656C15.473 14.9448 15.7666 13.9796 15.7674 12.992C15.7667 11.6663 15.2397 10.3951 14.3023 9.45767C13.3649 8.52027 12.0937 7.99332 10.768 7.9926ZM10.768 15.9391C10.185 15.9391 9.61513 15.7662 9.1304 15.4423C8.64566 15.1184 8.26787 14.658 8.04479 14.1194C7.82171 13.5808 7.76336 12.9881 7.87713 12.4163C7.9909 11.8445 8.27167 11.3193 8.68394 10.9071C9.09621 10.4949 9.62146 10.2142 10.1933 10.1005C10.7651 9.98683 11.3577 10.0453 11.8963 10.2684C12.4349 10.4916 12.8952 10.8695 13.2191 11.3542C13.5429 11.839 13.7157 12.409 13.7156 12.992C13.7128 13.7728 13.4014 14.5209 12.8492 15.073C12.297 15.6251 11.5489 15.9364 10.768 15.9391ZM25.494 12.2669C25.4956 12.9818 25.3149 13.6853 24.9689 14.311C24.4353 13.8766 23.8278 13.5418 23.1756 13.3225C23.3495 12.9978 23.441 12.6353 23.4422 12.2669C23.4422 11.6771 23.2079 11.1115 22.7908 10.6944C22.3738 10.2773 21.8081 10.043 21.2183 10.043C20.6285 10.043 20.0628 10.2773 19.6457 10.6944C19.2287 11.1115 18.9944 11.6771 18.9944 12.2669C18.9916 12.6358 19.0834 12.9992 19.261 13.3225C18.6088 13.5418 18.0013 13.8766 17.4676 14.311C17.1111 13.6604 16.9303 12.9281 16.9431 12.1864C16.956 11.4446 17.1619 10.719 17.5407 10.0811C17.9195 9.44327 18.458 8.91516 19.1032 8.54891C19.7483 8.18266 20.4778 7.99092 21.2197 7.9926C22.3529 7.9938 23.4394 8.44452 24.2407 9.24585C25.0421 10.0472 25.4928 11.1337 25.494 12.2669ZM21.2197 13.9964C20.2317 13.9956 19.2657 14.2877 18.4438 14.836C17.6218 15.3842 16.9809 16.1638 16.6021 17.0762C16.2233 17.9887 16.1235 18.993 16.3155 19.9621C16.5074 20.9313 16.9824 21.8217 17.6805 22.5209C18.3785 23.2201 19.2682 23.6966 20.237 23.8901C21.2058 24.0836 22.2103 23.9855 23.1233 23.6082C24.0364 23.2309 24.8171 22.5913 25.3667 21.7703C25.9162 20.9493 26.21 19.9837 26.2108 18.9957C26.2092 17.6717 25.6831 16.4023 24.7477 15.4653C23.8122 14.5283 22.5437 14.0001 21.2197 13.9964ZM21.2197 21.9351C20.6375 21.9344 20.0686 21.761 19.5849 21.437C19.1013 21.1129 18.7246 20.6527 18.5025 20.1146C18.2804 19.5764 18.2228 18.9845 18.3372 18.4137C18.4515 17.8428 18.7325 17.3187 19.1447 16.9076C19.5569 16.4964 20.0818 16.2168 20.6529 16.104C21.2241 15.9912 21.8158 16.0503 22.3534 16.2738C22.891 16.4973 23.3502 16.8752 23.673 17.3597C23.9957 17.8442 24.1676 18.4136 24.1668 18.9957C24.1647 19.776 23.8533 20.5236 23.3008 21.0747C22.7484 21.6257 21.9999 21.9351 21.2197 21.9351ZM15.0424 19.7126C15.0424 20.8465 14.5919 21.9341 13.79 22.7359C12.9882 23.5378 11.9006 23.9883 10.7667 23.9883C9.63267 23.9883 8.54513 23.5378 7.74328 22.7359C6.94143 21.9341 6.49095 20.8465 6.49095 19.7126H8.54274C8.54274 20.3024 8.77705 20.868 9.19411 21.2851C9.61118 21.7022 10.1768 21.9365 10.7667 21.9365C11.3565 21.9365 11.9221 21.7022 12.3392 21.2851C12.7563 20.868 12.9906 20.3024 12.9906 19.7126H15.0424Z" fill="#252525"/>
</g>
<defs>
<linearGradient id="paint0_linear_10014_215027" x1="74.9347" y1="17.4717" x2="74.9347" y2="3.81274" gradientUnits="userSpaceOnUse">
<stop stop-color="#CDA146"/>
<stop offset="1" stop-color="#F1D961"/>
</linearGradient>
<linearGradient id="paint1_linear_10014_215027" x1="30.3541" y1="1.63859" x2="2.07279" y2="29.9194" gradientUnits="userSpaceOnUse">
<stop stop-color="#F1D961"/>
<stop offset="1" stop-color="#CDA146"/>
</linearGradient>
<clipPath id="clip0_10014_215027">
<rect width="109.869" height="32" fill="white"/>
</clipPath>
</defs>
</svg>
